<svg width="21" height="13" viewBox="0 0 21 13" fill="none" xmlns="http://www.w3.org/2000/svg">
<path fill-rule="evenodd" clip-rule="evenodd" d="M0.745972 5.2054C0.425472 5.63523 0.205485 5.97397 0.0882743 6.17701C-0.0290993 6.38034 -0.0290993 6.61966 0.0882743 6.82299C0.205485 7.02603 0.425472 7.36477 0.745972 7.7946C1.27643 8.50601 1.90232 9.21699 2.62304 9.88285C4.72083 11.821 7.18806 13 10.0063 13C12.8244 13 15.2917 11.821 17.3895 9.88285C18.1102 9.21699 18.7361 8.50601 19.2665 7.7946C19.587 7.36477 19.807 7.02603 19.9242 6.82299C20.0416 6.61966 20.0416 6.38034 19.9242 6.17701C19.807 5.97397 19.587 5.63523 19.2665 5.2054C18.7361 4.49399 18.1102 3.78301 17.3895 3.11715C15.2917 1.17902 12.8244 0 10.0063 0C7.18806 0 4.72083 1.17902 2.62304 3.11715C1.90232 3.78301 1.27643 4.49399 0.745972 5.2054ZM3.83978 8.89491C3.19249 8.29688 2.62626 7.65369 2.147 7.01094C2.01097 6.8285 1.89032 6.65716 1.78536 6.49998C1.89032 6.34281 2.01097 6.17146 2.147 5.98903C2.62626 5.34627 3.19249 4.70308 3.83978 4.10505C5.65058 2.43207 7.71733 1.44443 10.0064 1.44443C12.2954 1.44443 14.3622 2.43207 16.173 4.10505C16.8203 4.70308 17.3865 5.34627 17.8657 5.98903C18.0018 6.17146 18.1224 6.34281 18.2274 6.49998C18.1224 6.65716 18.0018 6.8285 17.8657 7.01094C17.3865 7.65369 16.8203 8.29688 16.173 8.89491C14.3622 10.5679 12.2954 11.5555 10.0064 11.5555C7.71733 11.5555 5.65058 10.5679 3.83978 8.89491Z" fill="#8F8F8F"/>
<path d="M10.006 9.38886C8.16393 9.38886 6.67065 8.09546 6.67065 6.49997C6.67065 4.90448 8.16393 3.61108 10.006 3.61108C11.848 3.61108 13.3413 4.90448 13.3413 6.49997C13.3413 8.09546 11.848 9.38886 10.006 9.38886Z" fill="#8F8F8F"/>
</svg>
