<svg width="16" height="16" viewBox="0 0 16 16" fill="none" xmlns="http://www.w3.org/2000/svg">
<path fill-rule="evenodd" clip-rule="evenodd" d="M11.3373 1.33331C10.2138 1.33331 9.13635 1.79014 8.34211 2.60324L8.1123 2.83839L7.88239 2.60313C6.22825 0.910518 3.54636 0.910518 1.89222 2.60313C0.238076 4.29573 0.238076 7.03999 1.89222 8.7326L7.65161 14.6259C7.90604 14.8863 8.31856 14.8863 8.57299 14.6259L14.3324 8.7326C15.1269 7.92 15.5733 6.81749 15.5733 5.66786C15.5733 4.51824 15.1269 3.41573 14.3325 2.60324C13.5382 1.79014 12.4608 1.33331 11.3373 1.33331ZM12.7204 8.49646L8.1123 13.2117L2.8136 7.78979C1.66832 6.61788 1.66832 4.71784 2.8136 3.54593C3.95887 2.37403 5.81573 2.37403 6.96101 3.54593L7.65161 4.2526C7.90604 4.51295 8.31856 4.51295 8.57299 4.2526L9.2636 3.54593C9.81357 2.98291 10.5595 2.66665 11.3373 2.66665C12.1151 2.66665 12.861 2.98291 13.4111 3.54605C13.9612 4.10869 14.2703 4.87197 14.2703 5.66786C14.2703 6.46376 13.9612 7.22703 13.4111 7.78968L12.7204 8.49646Z" fill="black"/>
<mask id="mask0" mask-type="alpha" maskUnits="userSpaceOnUse" x="0" y="1" width="16" height="14">
<path fill-rule="evenodd" clip-rule="evenodd" d="M11.3373 1.33331C10.2138 1.33331 9.13635 1.79014 8.34211 2.60324L8.1123 2.83839L7.88239 2.60313C6.22825 0.910518 3.54636 0.910518 1.89222 2.60313C0.238076 4.29573 0.238076 7.03999 1.89222 8.7326L7.65161 14.6259C7.90604 14.8863 8.31856 14.8863 8.57299 14.6259L14.3324 8.7326C15.1269 7.92 15.5733 6.81749 15.5733 5.66786C15.5733 4.51824 15.1269 3.41573 14.3325 2.60324C13.5382 1.79014 12.4608 1.33331 11.3373 1.33331ZM12.7204 8.49646L8.1123 13.2117L2.8136 7.78979C1.66832 6.61788 1.66832 4.71784 2.8136 3.54593C3.95887 2.37403 5.81573 2.37403 6.96101 3.54593L7.65161 4.2526C7.90604 4.51295 8.31856 4.51295 8.57299 4.2526L9.2636 3.54593C9.81357 2.98291 10.5595 2.66665 11.3373 2.66665C12.1151 2.66665 12.861 2.98291 13.4111 3.54605C13.9612 4.10869 14.2703 4.87197 14.2703 5.66786C14.2703 6.46376 13.9612 7.22703 13.4111 7.78968L12.7204 8.49646Z" fill="white"/>
</mask>
<g mask="url(#mask0)">
<rect width="15.6364" height="16" fill="#4A4A4A"/>
</g>
</svg>
