<svg width="209" height="24" viewBox="0 0 209 24" fill="none" xmlns="http://www.w3.org/2000/svg">
<path fill-rule="evenodd" clip-rule="evenodd" d="M107.557 14.0875C107.152 14.0875 106.771 14.2688 106.516 14.5802C105.628 15.5935 104.531 16.0955 103.225 16.0955C102.402 16.0955 101.668 15.9142 101.021 15.5563C100.375 15.1938 99.8733 14.6918 99.5107 14.0457C99.1482 13.3996 98.9716 12.6652 98.9716 11.8424C98.9716 11.0197 99.1528 10.2853 99.5107 9.63918C99.8733 8.99308 100.375 8.49108 101.021 8.12852C101.668 7.76596 102.402 7.58932 103.225 7.58932C104.289 7.58932 105.219 7.924 106.009 8.59334C106.325 8.86758 106.553 9.02562 106.999 9.02562C107.747 9.02562 108.352 8.42135 108.352 7.67299C108.352 7.27789 108.184 6.92463 107.915 6.67363L107.91 6.66898L107.891 6.65038C107.389 6.20415 106.813 5.84159 106.195 5.57665C105.265 5.17225 104.224 4.96774 103.071 4.96774C101.705 4.96774 100.473 5.26057 99.3806 5.85089C98.2883 6.44121 97.4237 7.25465 96.8009 8.3005C96.1734 9.34634 95.8619 10.527 95.8619 11.8424C95.8619 13.1579 96.1734 14.3385 96.8009 15.3843C97.4284 16.4302 98.2883 17.2436 99.3806 17.8339C100.473 18.4243 101.7 18.7171 103.053 18.7171C104.205 18.7171 105.247 18.5126 106.186 18.1082C107.101 17.7131 107.873 17.1414 108.5 16.393C108.747 16.1513 108.905 15.8073 108.905 15.4355C108.905 14.6918 108.3 14.0875 107.557 14.0875ZM91.7343 4.97704C92.4687 4.97704 93.0637 5.57665 93.0637 6.30642V11.8471V17.3877C93.0637 18.1175 92.4641 18.7171 91.7343 18.7171C91.0046 18.7171 90.4049 18.1175 90.4049 17.3877V17.2762C89.2429 18.1779 87.7834 18.7171 86.1937 18.7171C82.4007 18.7171 79.3236 15.64 79.3236 11.8471C79.3236 8.05415 82.4007 4.97704 86.1937 4.97704C87.7787 4.97704 89.2429 5.51622 90.4049 6.41797V6.30642C90.4049 5.57665 91.0046 4.97704 91.7343 4.97704ZM90.4049 12.1027V11.5961C90.2748 9.38353 88.4388 7.63116 86.1937 7.63116C83.8649 7.63116 81.9778 9.51833 81.9778 11.8471C81.9778 14.1758 83.8649 16.063 86.1937 16.063C88.4388 16.0676 90.2748 14.3153 90.4049 12.1027ZM143.961 5.2048C144.659 5.2048 145.23 5.74863 145.282 6.43191C146.448 5.52552 147.912 4.98168 149.502 4.98168C153.295 4.98168 156.372 8.05878 156.372 11.8517C156.372 15.6446 153.295 18.7217 149.502 18.7217C147.912 18.7217 146.448 18.1826 145.286 17.2762V21.4967C145.286 22.2265 144.691 22.8215 143.961 22.8215C143.232 22.8215 142.637 22.2265 142.637 21.4967V12.112C142.632 12.0283 142.632 11.94 142.632 11.8517C142.632 11.7634 142.632 11.6797 142.637 11.5914V6.52488C142.637 5.79977 143.232 5.2048 143.961 5.2048ZM149.502 7.63116C147.173 7.63116 145.286 9.51833 145.286 11.8471C145.286 14.1758 147.173 16.063 149.502 16.063C151.831 16.063 153.718 14.1758 153.718 11.8471C153.718 9.52298 151.831 7.63116 149.502 7.63116ZM189.253 10.3132C189.946 10.3132 190.508 10.8756 190.508 11.5682C190.508 12.2608 189.946 12.8232 189.253 12.8232C188.561 12.8232 187.998 12.2608 187.998 11.5682C188.003 10.8756 188.561 10.3132 189.253 10.3132ZM205.16 13.5204V14.2967V14.3199L205.155 14.3664L205.15 14.3896L205.146 14.4129L205.136 14.4594L205.127 14.5012L205.122 14.5244L205.108 14.5663L205.099 14.5849L205.09 14.6081L205.076 14.6453L205.067 14.6685L205.048 14.7057L205.039 14.7243L205.016 14.7615L204.992 14.794L204.978 14.8126L204.95 14.8452L204.923 14.8777L204.895 14.9102L204.862 14.9381L204.83 14.966L204.797 14.9939L204.76 15.0171L204.723 15.0404L204.704 15.0497L204.667 15.0683L204.644 15.0776L204.606 15.0962L204.569 15.1101L204.546 15.1194L204.504 15.1333L204.481 15.138L204.439 15.1473L204.416 15.1519L204.374 15.1566L204.351 15.1612L204.309 15.1659H204.286H204.239H204.216L204.17 15.1612L204.146 15.1566L204.104 15.1519L204.081 15.1473L204.039 15.138L203.998 15.124L203.974 15.1148L203.937 15.1008L203.914 15.0915L203.872 15.0729L203.835 15.0543L203.816 15.045L203.784 15.0218L203.765 15.0078L203.747 14.9939L203.728 14.98L203.695 14.9567L203.663 14.9288L203.63 14.9009L203.602 14.873L203.575 14.8405L203.547 14.808L203.523 14.7754L203.509 14.7522L203.486 14.715L203.477 14.6964L203.458 14.6592L203.44 14.622L203.426 14.5849L203.417 14.5616L203.403 14.5198L203.398 14.4965L203.389 14.4547L203.384 14.4315L203.379 14.4082L203.375 14.385L203.37 14.3618L203.365 14.3199V14.2967V14.2409V13.5251H202.366C201.869 13.5251 201.367 13.4507 200.911 13.2462C200.507 13.0649 200.167 12.7953 199.926 12.4234C199.684 12.0469 199.577 11.6193 199.577 11.1731C199.577 10.7269 199.679 10.2946 199.926 9.91806C200.167 9.54621 200.507 9.28126 200.907 9.09534C201.362 8.89082 201.864 8.8118 202.361 8.8118H206.136C206.633 8.8118 207.135 8.88617 207.591 9.09534C207.995 9.27662 208.33 9.54621 208.571 9.91806C208.818 10.2946 208.92 10.7269 208.92 11.1731C208.92 11.6193 208.818 12.0469 208.571 12.4234C208.33 12.7953 207.995 13.0649 207.586 13.2462C207.13 13.4507 206.628 13.5251 206.131 13.5251H205.16V13.5204ZM194.841 13.5204V14.2734C194.841 14.7615 194.441 15.1612 193.953 15.1612C193.465 15.1612 193.065 14.7615 193.065 14.2734V9.6996C193.065 9.21154 193.465 8.8118 193.953 8.8118H195.84C196.337 8.8118 196.839 8.88617 197.295 9.09534C197.699 9.27662 198.034 9.54621 198.276 9.91806C198.522 10.2946 198.624 10.7269 198.624 11.1731C198.624 11.6193 198.522 12.0469 198.276 12.4234C198.034 12.7953 197.699 13.0649 197.29 13.2462C196.835 13.4507 196.333 13.5251 195.835 13.5251H194.841V13.5204ZM205.16 10.3364V12.0005H206.08C206.354 12.0005 206.68 11.9586 206.893 11.7773C207.079 11.624 207.144 11.4101 207.144 11.1731C207.144 10.9314 207.084 10.7129 206.893 10.5595C206.675 10.3782 206.35 10.3364 206.08 10.3364H205.16ZM203.379 12.0005V10.3364H202.459C202.185 10.3364 201.859 10.3782 201.646 10.5595C201.455 10.7176 201.395 10.936 201.395 11.1731C201.395 11.4101 201.46 11.624 201.646 11.7773C201.864 11.9586 202.189 12.0005 202.459 12.0005H203.379ZM194.841 10.3364V12.0005H195.761C196.035 12.0005 196.361 11.9586 196.574 11.7773C196.76 11.624 196.825 11.4101 196.825 11.1731C196.825 10.9314 196.765 10.7129 196.574 10.5595C196.356 10.3782 196.031 10.3364 195.761 10.3364H194.841ZM184.271 11.2986C184.801 10.6571 185.121 9.82975 185.121 8.93265C185.121 6.8735 183.453 5.2048 181.393 5.2048H181.389H175.671C174.886 5.2048 174.249 5.83231 174.235 6.61785V6.64109V7.09196V17.0484V17.2343V17.2715V17.3041V17.3133C174.235 17.9641 174.765 18.494 175.416 18.494H175.425H175.639H181.723C183.959 18.494 185.772 16.6812 185.772 14.4454C185.767 13.1718 185.186 12.0376 184.271 11.2986ZM177.312 16.2117V12.8232H178.009H181.259C182.193 12.8232 182.955 13.5809 182.955 14.5198C182.955 15.4541 182.198 16.2164 181.259 16.2164H178.079H177.312V16.2117ZM177.875 7.71017H181.003C181.723 7.71017 182.304 8.29585 182.304 9.01632C182.304 9.7368 181.719 10.3178 181.003 10.3178H177.935H177.308V7.71017H177.875ZM170.27 12.8232H169.41H169.15H161.457C161.917 14.4547 163.419 15.6586 165.194 15.6586C166.487 15.6586 167.704 15.2217 168.532 14.4594C169.108 13.9295 170.005 13.9713 170.535 14.5477C171.065 15.1241 171.023 16.0212 170.447 16.551C169.099 17.7875 167.184 18.494 165.19 18.494C161.485 18.494 158.473 15.482 158.473 11.7773C158.473 8.07273 161.485 5.0607 165.19 5.0607C168.569 5.0607 171.409 7.72412 171.772 11.0755C171.781 11.1452 171.786 11.2196 171.786 11.2939C171.79 12.1353 171.107 12.8139 170.27 12.8232ZM168.955 10.3132C168.351 8.86292 166.919 7.84497 165.25 7.84497C163.581 7.84497 162.15 8.86292 161.546 10.3132H168.955ZM167.37 4.26587C166.514 4.26587 165.822 3.57328 165.822 2.71801C165.822 1.86274 166.514 1.17017 167.37 1.17017C168.225 1.17017 168.918 1.86274 168.918 2.71801C168.918 3.57328 168.225 4.26587 167.37 4.26587ZM162.587 4.26587C161.732 4.26587 161.039 3.57328 161.039 2.71801C161.039 1.86274 161.732 1.17017 162.587 1.17017C163.442 1.17017 164.135 1.86274 164.135 2.71801C164.135 3.57328 163.442 4.26587 162.587 4.26587ZM55.7247 4.97704C59.5177 4.97704 62.5948 8.05415 62.5948 11.8471C62.5948 15.64 59.5177 18.7171 55.7247 18.7171C51.9318 18.7171 48.8547 15.64 48.8547 11.8471C48.8501 8.05415 51.9272 4.97704 55.7247 4.97704ZM55.7247 7.63116C53.396 7.63116 51.5088 9.51833 51.5088 11.8471C51.5088 14.1758 53.396 16.063 55.7247 16.063C58.0535 16.063 59.9407 14.1758 59.9407 11.8471C59.9407 9.52298 58.0535 7.63116 55.7247 7.63116ZM35.0589 5.65102C35.0775 5.66961 35.0914 5.68821 35.11 5.70216L39.4142 10.197L43.7928 5.64638C44.0717 5.37214 44.4529 5.20014 44.8759 5.20014C45.7265 5.20014 46.4191 5.89273 46.4191 6.74335V16.9415C46.4191 17.7875 45.7265 18.4847 44.8759 18.4847C44.0252 18.4847 43.3327 17.7921 43.3327 16.9415V10.1412L40.4182 13.1718C40.4089 13.1811 40.3996 13.1904 40.3857 13.2043C40.3811 13.209 40.3811 13.209 40.3764 13.2136C40.13 13.4507 39.8233 13.5762 39.5072 13.5994H39.5025C39.4932 13.5994 39.4839 13.5994 39.4747 13.5994H39.4654C39.4561 13.5994 39.4514 13.5994 39.4421 13.5994C39.4375 13.5994 39.4328 13.5994 39.4282 13.5994C39.4235 13.5994 39.4142 13.5994 39.4096 13.5994C39.4049 13.5994 39.3956 13.5994 39.391 13.5994C39.3863 13.5994 39.3817 13.5994 39.377 13.5994C39.3677 13.5994 39.3631 13.5994 39.3538 13.5994H39.3445C39.3352 13.5994 39.3259 13.5994 39.3166 13.5994H39.312C38.9959 13.5808 38.6845 13.4507 38.4428 13.2136C38.4381 13.209 38.4381 13.209 38.4335 13.2043C38.4242 13.195 38.4149 13.1857 38.4009 13.1718L35.5097 10.1691V16.9415C35.5097 17.7875 34.8172 18.4847 33.9665 18.4847C33.1206 18.4847 32.4233 17.7921 32.4233 16.9415V6.74335C32.4233 5.89273 33.1159 5.20014 33.9665 5.20014C34.3988 5.20479 34.78 5.37213 35.0589 5.65102ZM124.75 5.2048C125.592 5.2048 126.28 5.89273 126.28 6.73406V6.98041V9.56945H129.659C131.277 9.56945 132.522 9.93201 133.391 10.6525C134.256 11.373 134.693 12.442 134.693 13.8597C134.693 15.3658 134.214 16.5139 133.261 17.3041C132.304 18.0942 130.96 18.4893 129.227 18.4893H124.755C123.914 18.4893 123.226 17.8014 123.226 16.9601V16.407V6.97576V6.72941C123.221 5.88808 123.909 5.2048 124.75 5.2048ZM126.275 11.8471V16.2117H129.045C129.84 16.2117 130.468 16.0165 130.914 15.6214C131.365 15.231 131.588 14.6592 131.588 13.9155C131.588 12.535 130.742 11.8471 129.045 11.8471H126.275ZM138.309 5.2048C139.151 5.2048 139.839 5.89273 139.839 6.73406V16.9647C139.839 17.8061 139.151 18.494 138.309 18.494C137.468 18.494 136.78 17.8061 136.78 16.9647V6.73406C136.785 5.88809 137.473 5.2048 138.309 5.2048ZM115.547 5.2048H120.065C120.753 5.2048 121.32 5.76724 121.32 6.45982C121.32 7.14775 120.758 7.71017 120.065 7.71017H117.067V16.974C117.067 17.8107 116.384 18.494 115.547 18.494C114.71 18.494 114.027 17.8107 114.027 16.974V7.71017H111.048C110.36 7.71017 109.797 7.14775 109.797 6.45982C109.797 5.77188 110.36 5.2048 111.048 5.2048H115.547ZM66.5783 5.2048C67.4243 5.2048 68.1168 5.89738 68.1168 6.74335V10.4433H74.1548V6.74335C74.1548 5.89738 74.8474 5.2048 75.6934 5.2048C76.5394 5.2048 77.232 5.89738 77.232 6.74335V16.9554C77.232 17.8014 76.5394 18.494 75.6934 18.494C74.8474 18.494 74.1548 17.8014 74.1548 16.9554V13.0463H68.1168V16.9554C68.1168 17.8014 67.4243 18.494 66.5783 18.494C65.7323 18.494 65.0397 17.8014 65.0397 16.9554V6.74335C65.0397 5.89273 65.7323 5.2048 66.5783 5.2048Z" fill="#00893D"/>
<path fill-rule="evenodd" clip-rule="evenodd" d="M14.84 23.5095C11.1772 24.1602 7.61203 23.0539 5.00439 20.7949C7.87698 21.8082 11.0331 22.1336 14.2404 21.6083C14.324 21.5944 14.4077 21.5805 14.4914 21.5665C14.6819 21.534 14.8679 21.4921 15.0538 21.4503C19.8275 20.3161 23.0347 15.8353 22.5978 10.9733C22.9511 14.1247 22.4909 17.2065 21.3753 19.9908C19.688 21.771 17.4383 23.0493 14.84 23.5095Z" fill="url(#paint0_linear)"/>
<path fill-rule="evenodd" clip-rule="evenodd" d="M14.7337 15.0729C14.6826 14.9892 14.6268 14.9102 14.5757 14.8266C14.5803 14.8266 14.5803 14.8219 14.585 14.8219C14.6547 14.9381 14.7058 15.0264 14.7337 15.0729Z" fill="#FFF8B4"/>
<path fill-rule="evenodd" clip-rule="evenodd" d="M12.5008 5.63245C13.8023 9.90879 16.1078 13.7436 19.1477 16.8671H16.4889C13.7279 13.6459 11.6409 9.82977 10.4556 5.63245H12.5008Z" fill="#FFD800"/>
<path fill-rule="evenodd" clip-rule="evenodd" d="M15.082 5.63245C13.9013 9.82512 11.8236 13.6459 9.06721 16.8671H6.41309C9.43906 13.7436 11.7399 9.90414 13.0321 5.63245H15.082Z" fill="#E5310E"/>
<path fill-rule="evenodd" clip-rule="evenodd" d="M19.3723 14.3989C17.4015 15.4401 15.1564 16.0351 12.7672 16.0351C10.3827 16.0351 8.13294 15.4448 6.16211 14.3989V12.1399C8.07252 13.3438 10.3362 14.041 12.7672 14.041C15.1936 14.041 17.4572 13.3438 19.3723 12.1399V14.3989Z" fill="#5CB136"/>
<path fill-rule="evenodd" clip-rule="evenodd" d="M4.27468 3.58725C4.30722 3.55471 4.33976 3.51752 4.3723 3.48499C4.33976 3.52217 4.30722 3.55471 4.27468 3.58725ZM5.00445 20.7949C3.02432 19.0797 1.59732 16.6998 1.10461 13.9202C0.42133 10.0761 1.67634 6.33433 4.16778 3.70345L4.15848 3.71276C3.04291 6.49238 2.58274 9.57412 2.936 12.7256C2.96389 13.0091 2.99643 13.2927 3.04756 13.5762C3.9865 18.8612 8.96472 22.4078 14.2404 21.6083C14.3241 21.5944 14.4078 21.5804 14.4914 21.5665C11.2935 22.2544 8.13269 21.9337 5.00445 20.7949Z" fill="url(#paint1_linear)"/>
<path fill-rule="evenodd" clip-rule="evenodd" d="M10.6988 0.184797C14.3616 -0.465951 17.9267 0.640318 20.5344 2.89934C17.6618 1.88603 14.5057 1.56066 11.2984 2.08591C11.2147 2.09985 11.1311 2.1138 11.0474 2.12774C5.96693 3.02949 2.48543 7.67303 2.94095 12.721C2.58769 9.56949 3.04786 6.48774 4.16343 3.70812C5.84608 1.92322 8.0958 0.644968 10.6988 0.184797Z" fill="url(#paint2_linear)"/>
<path fill-rule="evenodd" clip-rule="evenodd" d="M21.2587 20.1069C21.2262 20.1394 21.1937 20.1766 21.1611 20.2091C21.1937 20.1719 21.2262 20.1394 21.2587 20.1069ZM20.529 2.89925C22.5091 4.61443 23.9361 6.9943 24.4288 9.77392C25.1121 13.618 23.8571 17.3598 21.3656 19.9907L21.3749 19.9814C22.4905 17.2018 22.9507 14.12 22.5974 10.9685C22.5742 10.685 22.537 10.4014 22.4859 10.1179C21.5469 4.8329 16.5687 1.28633 11.293 2.08582C11.2093 2.09976 11.1257 2.1137 11.042 2.12765C14.2446 1.43507 17.4054 1.76044 20.529 2.89925Z" fill="url(#paint3_linear)"/>
<defs>
<linearGradient id="paint0_linear" x1="23.5128" y1="16.4394" x2="4.79969" y2="19.5674" gradientUnits="userSpaceOnUse">
<stop stop-color="#FFE500"/>
<stop offset="1" stop-color="#F18500"/>
</linearGradient>
<linearGradient id="paint1_linear" x1="1.25615" y1="5.02642" x2="10.4167" y2="23.5771" gradientUnits="userSpaceOnUse">
<stop stop-color="#FDC300"/>
<stop offset="1" stop-color="#D7030D"/>
</linearGradient>
<linearGradient id="paint2_linear" x1="1.97659" y1="7.31201" x2="20.7222" y2="3.98269" gradientUnits="userSpaceOnUse">
<stop stop-color="#FFED00"/>
<stop offset="1" stop-color="#9FC515"/>
</linearGradient>
<linearGradient id="paint3_linear" x1="16.8799" y1="1.08817" x2="20.2742" y2="20.3625" gradientUnits="userSpaceOnUse">
<stop stop-color="#32A934"/>
<stop offset="1" stop-color="#C7D300"/>
</linearGradient>
</defs>
</svg>
