<svg width="30" height="28" viewBox="0 0 30 28" fill="none" xmlns="http://www.w3.org/2000/svg">
<path fill-rule="evenodd" clip-rule="evenodd" d="M14.7302 14C11.3978 14 8.69638 11.3884 8.69638 8.16671C8.69638 4.94505 11.3978 2.33337 14.7302 2.33337C18.0625 2.33337 20.7639 4.94505 20.7639 8.16671C20.7639 11.3884 18.0625 14 14.7302 14ZM25.591 24.5V22.1667C25.591 18.945 22.8896 16.3334 19.5572 16.3334H9.90316C6.5708 16.3334 3.86938 18.945 3.86938 22.1667V24.5C3.86938 25.1444 4.40967 25.6667 5.07614 25.6667C5.74261 25.6667 6.2829 25.1444 6.2829 24.5V22.1667C6.2829 20.2337 7.90374 18.6667 9.90316 18.6667H19.5572C21.5566 18.6667 23.1775 20.2337 23.1775 22.1667V24.5C23.1775 25.1444 23.7177 25.6667 24.3842 25.6667C25.0507 25.6667 25.591 25.1444 25.591 24.5ZM18.3505 8.16671C18.3505 10.0997 16.7296 11.6667 14.7302 11.6667C12.7308 11.6667 11.1099 10.0997 11.1099 8.16671C11.1099 6.23371 12.7308 4.66671 14.7302 4.66671C16.7296 4.66671 18.3505 6.23371 18.3505 8.16671Z" fill="#4A4A4A"/>
<mask id="mask0" mask-type="alpha" maskUnits="userSpaceOnUse" x="3" y="2" width="23" height="24">
<path fill-rule="evenodd" clip-rule="evenodd" d="M14.7302 14C11.3978 14 8.69638 11.3884 8.69638 8.16671C8.69638 4.94505 11.3978 2.33337 14.7302 2.33337C18.0625 2.33337 20.7639 4.94505 20.7639 8.16671C20.7639 11.3884 18.0625 14 14.7302 14ZM25.591 24.5V22.1667C25.591 18.945 22.8896 16.3334 19.5572 16.3334H9.90316C6.5708 16.3334 3.86938 18.945 3.86938 22.1667V24.5C3.86938 25.1444 4.40967 25.6667 5.07614 25.6667C5.74261 25.6667 6.2829 25.1444 6.2829 24.5V22.1667C6.2829 20.2337 7.90374 18.6667 9.90316 18.6667H19.5572C21.5566 18.6667 23.1775 20.2337 23.1775 22.1667V24.5C23.1775 25.1444 23.7177 25.6667 24.3842 25.6667C25.0507 25.6667 25.591 25.1444 25.591 24.5ZM18.3505 8.16671C18.3505 10.0997 16.7296 11.6667 14.7302 11.6667C12.7308 11.6667 11.1099 10.0997 11.1099 8.16671C11.1099 6.23371 12.7308 4.66671 14.7302 4.66671C16.7296 4.66671 18.3505 6.23371 18.3505 8.16671Z" fill="white"/>
</mask>
<g mask="url(#mask0)">
<rect x="0.249023" width="28.9621" height="28" fill="#00893D"/>
</g>
</svg>
